<?xml version="1.0" standalone="no"?> <!DOCTYPE svg PUBLIC "-//W3C//DTD SVG 1.0//EN" "http://www.w3.org/TR/2001/REC-SVG-20010904/DTD/svg10.dtd" > <svg xmlns="http://www.w3.org/2000/svg" width="100%" height="100%">
<defs >
<font horiz-adv-x="227" ><font-face
    font-family="Concrete Shoes"
    units-per-em="1000"
    panose-1="0 0 4 0 0 0 0 0 0 0"
    ascent="800"
    descent="-200"
    alphabetic="0" />
<missing-glyph horiz-adv-x="500" d="M63 0V800H438V0H63ZM125 63H375V738H125V63Z" />
<glyph unicode=" " glyph-name="space" horiz-adv-x="170" />
<glyph unicode="!" glyph-name="exclam" horiz-adv-x="149" d="M119 383Q119 327 108 243Q94 137 75 120Q59 137 33 141V639Q59 639 117 646Q115 613 115 562Q115 532 117 473T119 383ZM132 28Q95 0 72 0Q56 0 12 28V79Q56 107 72 107Q88 107 132 79V28Z" />
<glyph unicode="&quot;" glyph-name="quotedbl" horiz-adv-x="296" d="M137 681Q113 663 70 636Q20 605 10 605Q7 605 7 608Q7 612 20 634T33 665Q33 669 31 671Q10 689 10 713Q10 729 35 744T77 760Q93 760 137 732V681ZM278 666Q254 648 211 621Q161 590 151
590Q148 590 148 593Q148 597 161 619T174 650Q174 654 172 656Q151 674 151 698Q151 714 176 729T218 745Q234 745 278 717V666Z" />
<glyph unicode="$" glyph-name="dollar" horiz-adv-x="257" d="M239 263Q239 146 166 115Q169 106 169 94Q169 97 165 54Q146 49 123 49Q100 49 80 54Q80 60 79 72T77 91Q77 104 80 115Q29 140 18 168Q13 181 13 251Q23 255 40 255Q42 255 92 252Q92 246 93 235T95
218Q95 207 92 197Q104 192 153 192V314Q149 317 142 317Q136 317 124 315T106 313Q41 313 20 356Q6 384 6 456Q6 520 16 548Q32 592 80 611Q75 631 75 663Q75 695 80 725Q98 730 122 730Q145 730 165 725Q171 700 171 663Q171 636 167 610Q181 598 210 557T239
503Q239 497 236 485T232 467H154Q150 479 151 497Q153 534 153 528Q147 530 140 530Q132 530 116 529T92 527V405Q180 405 209 378T239 263Z" />
<glyph unicode="%" glyph-name="percent" horiz-adv-x="292" d="M128 541Q91 514 68 514Q52 514 8 541V593Q52 620 68 620Q84 620 128 593V541ZM241 692L134 82Q106 67 82 67Q48 67 48 82Q48 102 66 204Q79 281 107 433Q132 560 171 656Q189 700 201 700Q209 700
221 697L241 692ZM281 168Q245 134 218 134Q202 134 182 156T161 194Q161 214 181 230T221 247Q252 247 281 219V168Z" />
<glyph unicode="&amp;" glyph-name="ampersand" horiz-adv-x="320" d="M311 271H104V92Q123 92 160 86Q160 181 166 226Q174 226 190 227T215 229Q232 229 244 225Q249 177 249 121Q249 64 244 8Q222 8 180 4T115 0Q13 0 13 167Q13 190 15 237T18 307Q18 329 17
372T15 438Q15 522 34 564Q62 627 135 627Q192 627 222 591T252 497Q252 490 248 476T244 454Q235 454 219 453T193 451Q178 451 166 454Q163 463 163 480Q163 490 164 511T165 542Q160 544 152 544Q144 544 128 543T104 541V356H311V271Z" />
<glyph unicode="&apos;" glyph-name="quotesingle" horiz-adv-x="181" d="M154 681Q130 663 87 636Q37 605 27 605Q24 605 24 608Q24 612 37 634T50 665Q50 669 48 671Q27 689 27 713Q27 729 52 744T94 760Q110 760 154 732V681Z" />
<glyph unicode="(" glyph-name="parenleft" horiz-adv-x="167" d="M159 -34Q150 -34 131 -37T103 -41Q60 -41 32 -21Q0 2 0 43V661Q0 745 103 745Q112 745 131 742T159 738V660Q151 660 125 658Q104 656 92 659L86 51Q100 44 131 44Q144 44 159 45V-34Z" />
<glyph unicode=")" glyph-name="parenright" horiz-adv-x="216" d="M185 43Q185 12 157 -14T98 -40Q86 -40 62 -36T26 -32Q26 -23 25 -7T24 19Q24 35 26 46Q72 46 99 52V655Q87 660 63 660Q36 659 26 662Q26 671 25 687T23 713Q23 728 26 740Q35 740 52 743T78
747Q117 747 149 725Q185 701 185 664V43Z" />
<glyph unicode="*" glyph-name="asterisk" horiz-adv-x="385" d="M368 249Q339 249 295 238Q306 231 322 212T348 186V156Q265 115 249 115Q227 115 218 131Q202 159 199 162Q159 115 139 115Q116 115 81 134Q42 155 42 175Q42 187 59 208T89 237Q82 238 65 243T38
249Q23 249 10 236V297Q10 315 32 338T72 362Q80 362 123 348Q123 409 130 434Q151 439 184 439Q217 439 248 434Q248 422 251 397T255 360Q260 359 267 359Q276 359 294 363T322 368Q340 368 355 336Q368 309 368 288V249Z" />
<glyph unicode="," glyph-name="comma" horiz-adv-x="168" d="M146 28Q122 10 79 -17Q29 -48 19 -48Q16 -48 16 -45Q16 -41 29 -19T42 12Q42 16 40 18Q19 36 19 60Q19 76 44 91T86 107Q102 107 146 79V28Z" />
<glyph unicode="." glyph-name="period" horiz-adv-x="168" d="M146 28Q109 0 86 0Q61 0 40 17T19 60Q19 76 44 91T86 107Q102 107 146 79V28Z" />
<glyph unicode="0" glyph-name="zero" horiz-adv-x="269" d="M243 102Q243 72 204 36T133 0Q7 0 7 206Q7 226 8 264T10 323Q10 339 8 371T6 419Q6 633 126 633Q160 633 201 599T243 531V102ZM155 88V546H97V87Q102 88 155 88Z" />
<glyph unicode="1" glyph-name="one" horiz-adv-x="159" d="M143 41Q143 19 138 0Q109 -5 73 -5Q36 -5 0 0Q0 9 -1 26T-2 52Q-2 66 1 78Q20 78 33 84V533Q26 536 16 553T6 579Q6 586 9 598T13 617Q35 622 60 622Q87 622 112 618V83Q118 78 138 78Q143 64 143 41Z" />
<glyph unicode="2" glyph-name="two" horiz-adv-x="260" d="M240 435Q240 292 143 292Q135 292 119 296T94 300V84Q113 83 147 78Q147 168 154 211Q167 216 190 216Q212 216 232 211Q232 188 233 142T235 72Q235 31 232 0Q208 0 161 -1T90 -3Q46 -3 10 0V330Q17
345 52 365T106 386Q114 386 128 382T150 378V533L92 540Q92 530 93 512T95 483Q95 464 92 446H80Q74 446 61 445T42 444Q25 444 14 447Q11 468 10 481T7 498T6 499Q6 551 40 588T126 626Q240 626 240 435Z" />
<glyph unicode="3" glyph-name="three" horiz-adv-x="257" d="M232 221Q232 120 220 80Q196 0 121 0Q-2 0 -2 173Q-2 184 1 206T5 239Q13 239 30 240T55 242Q71 242 83 239Q89 202 89 163Q89 125 84 92Q92 88 112 89T140 87Q145 91 145 271H143L133 270H82Q73
270 65 271V309Q65 324 94 411L131 523L125 547H89Q88 542 88 536Q88 528 93 512T98 487Q98 482 91 471T83 454Q74 454 56 453T29 452Q17 452 5 454Q2 478 2 509Q2 529 3 567T5 626Q55 631 112 631Q168 631 223 626Q231 586 231 587Q231 571 202 479L164 358Q210
331 222 302Q232 279 232 221Z" />
<glyph unicode="4" glyph-name="four" horiz-adv-x="289" d="M274 260Q274 244 271 231Q256 232 253 232Q237 232 219 226V95Q225 90 252 90Q252 82 253 65T254 40Q254 24 251 12Q207 4 121 4Q106 18 106 41Q106 73 140 96V231Q110 227 74 227Q34 227 0 232Q0
240 -3 254T-7 277Q-7 323 69 478Q148 637 179 637Q186 637 198 634T218 630V316Q231 310 272 310Q272 302 273 285T274 260ZM145 312Q132 329 132 351Q132 366 137 394T143 437Q103 368 86 312H145Z" />
<glyph unicode="5" glyph-name="five" horiz-adv-x="259" d="M238 235Q238 126 225 83Q200 0 117 0Q4 0 4 147Q4 194 12 226Q20 226 36 227T61 229Q77 229 89 226Q95 189 95 152Q95 118 90 85Q100 79 151 79V299Q133 297 112 297Q109 297 62 299Q34 300 11 299V619Q62
624 119 624Q175 624 229 619Q234 580 234 534Q234 488 229 447H218Q211 447 198 446T178 445Q163 445 151 448Q148 460 149 490L151 535Q145 538 137 538Q129 538 113 536T89 534V386Q181 386 209 357T238 235Z" />
<glyph unicode="6" glyph-name="six" horiz-adv-x="253" d="M234 254Q234 130 226 98Q205 13 117 13Q87 13 46 37Q0 63 0 90V535Q0 570 41 604T117 639Q173 639 205 592Q233 551 233 492Q233 486 230 476T226 460H137Q145 516 145 526Q145 543 139 553Q131 547
86 547V365Q165 365 193 349Q234 326 234 254ZM146 93V278H88V93Q94 93 104 94T121 96Q133 96 146 93Z" />
<glyph unicode="7" glyph-name="seven" horiz-adv-x="246" d="M215 0Q207 0 190 -1T165 -3Q149 -3 137 0V534Q119 535 88 539Q82 516 82 447Q73 447 56 446T30 444Q14 444 3 447Q-1 486 -1 531Q-1 577 4 618Q27 618 74 619T144 621Q185 621 215 618V0Z" />
<glyph unicode="8" glyph-name="eight" horiz-adv-x="260" d="M234 82Q234 59 188 30T117 0Q43 0 16 77Q0 123 0 216Q0 317 34 350Q0 385 0 444Q0 633 124 633Q182 633 211 581Q234 540 234 477Q234 409 225 386Q224 383 216 371T207 350Q207 344 220 322T234
291V82ZM146 388V546Q140 546 130 545T113 543Q100 543 88 546V388H146ZM146 88V306H88V88H146Z" />
<glyph unicode="9" glyph-name="nine" horiz-adv-x="269" d="M246 406Q246 390 245 358T243 310Q243 296 244 268T245 226Q245 0 146 0Q9 0 9 151Q9 139 10 191Q10 191 10 232H95Q99 204 98 162L96 92Q106 86 156 86V302Q152 304 147 304Q142 304 133 302T119
300Q47 300 24 344Q9 373 9 453Q9 535 26 574Q52 633 123 633Q246 633 246 406ZM155 388V546Q149 546 139 545T122 543Q109 543 97 546V388H155Z" />
<glyph unicode="?" glyph-name="question" horiz-adv-x="268" d="M248 380Q248 335 220 314T146 298Q141 278 134 216Q128 162 112 137Q90 151 62 151Q54 180 54 230Q54 325 64 340Q77 362 161 382V565Q156 568 135 569Q108 571 106 571Q106 484 100 438Q92 438
75 437T50 435Q34 435 22 438Q14 502 14 507Q14 560 42 605Q74 657 124 657Q165 657 205 627Q248 594 248 555V380ZM167 38Q131 10 108 10Q92 10 48 38V90Q92 117 108 117Q123 117 167 90V38Z" />
<glyph unicode="A" glyph-name="A" horiz-adv-x="252" d="M242 -115L203 -123Q138 -123 138 174Q138 257 144 365Q122 367 84 371V5Q68 0 46 0Q24 0 4 5L-3 514Q-4 557 35 593T117 630Q219 630 226 290Q226 233 227 118Q229 -23 242 -115ZM142 451V543H84V451H142Z" />
<glyph unicode="B" glyph-name="B" horiz-adv-x="248" d="M226 207Q226 -1 131 -1Q123 -1 104 -1Q79 0 66 0Q66 0 0 0V631H56L112 632Q182 632 204 591Q219 563 219 486Q219 449 192 415Q226 314 226 207ZM138 453V545H80V453H138ZM138 87V371H80V87H138Z" />
<glyph unicode="C" glyph-name="C" horiz-adv-x="252" d="M233 175Q233 110 206 66Q174 12 113 12Q74 12 37 48T0 123V541Q0 583 38 612Q73 639 117 639Q165 639 199 603T233 519Q233 510 230 493T226 466Q217 466 201 465T175 463Q160 463 148 466Q142 487 142
514Q142 537 147 555Q143 559 137 559Q94 559 81 476Q72 416 77 310Q85 163 85 187Q85 128 105 98H147Q147 137 147 137Q147 145 146 160Q146 171 146 176Q146 204 148 265Q156 265 173 266T198 268Q214 268 226 265Q233 241 233 175Z" />
<glyph unicode="D" glyph-name="D" horiz-adv-x="255" d="M226 75Q226 -8 69 -8Q57 -8 35 -4T0 0V624Q89 626 129 626Q163 626 194 601T226 543V75ZM138 80V538Q127 533 114 533Q101 533 83 538V80H138Z" />
<glyph unicode="E" glyph-name="E" horiz-adv-x="249" d="M230 601Q230 580 226 560Q195 555 161 555Q129 555 85 559V465Q106 470 133 470Q163 470 186 465Q186 436 192 384Q185 385 175 385H150L85 384Q85 384 84 384H86V104Q97 98 147 98Q143 127 143 155Q143
187 148 219Q156 219 172 220T197 221Q214 221 226 218Q229 191 229 154Q229 132 228 88T226 21Q194 13 138 13Q0 13 0 97V562Q0 646 133 646Q148 646 179 643T225 639Q230 623 230 601Z" />
<glyph unicode="F" glyph-name="F" horiz-adv-x="233" d="M229 617Q227 582 228 540Q205 540 158 537T88 533V444Q99 444 121 445T155 447Q175 447 189 444L188 435Q188 418 195 367L90 366V0Q81 0 64 -1T37 -3Q22 -3 10 0L2 538Q1 626 116 626Q195 626 229 617Z" />
<glyph unicode="G" glyph-name="G" horiz-adv-x="270" d="M249 181Q249 0 129 0Q9 0 9 212Q9 230 10 264T12 317Q12 332 11 363T10 409Q10 633 129 633Q154 633 196 607T238 557V481H160Q160 530 154 547L98 541V92Q108 86 154 86Q167 106 167 119Q167 204 167
204L166 289Q166 363 135 383Q126 399 125 415Q124 414 125 414V414V423L126 452Q139 452 165 453T204 455Q224 455 238 452Q246 384 246 263Q246 249 247 222T249 181Z" />
<glyph unicode="H" glyph-name="H" horiz-adv-x="252" d="M238 -114Q232 -114 219 -117T199 -121Q132 -121 132 189Q132 294 140 360Q119 361 81 366V0Q72 0 55 -1T29 -3Q12 -3 0 0V618Q8 618 24 619T49 621Q65 621 78 618Q83 587 83 549Q83 510 78 451L139 444Q135
483 135 525Q135 571 140 618Q148 618 164 619T189 620Q206 620 218 617Q220 577 220 317Q220 99 238 -114Z" />
<glyph unicode="I" glyph-name="I" horiz-adv-x="109" d="M78 0Q70 0 54 -1T29 -3Q12 -3 0 0V618Q8 618 24 619T48 621Q65 621 78 617V0Z" />
<glyph unicode="J" glyph-name="J" horiz-adv-x="252" d="M227 106Q227 69 187 35T109 0Q58 0 24 42Q-8 81 -8 133Q-8 163 1 179H78Q78 169 80 149T82 118Q82 102 79 91Q88 86 114 86H138V541Q130 545 104 546Q69 548 66 548V559Q66 566 65 579T64 599Q64 614
67 626Q101 631 141 631Q182 631 218 625Q227 252 227 106Z" />
<glyph unicode="K" glyph-name="K" horiz-adv-x="253" d="M232 -109Q225 -110 209 -115T182 -121Q119 -121 119 41Q119 123 146 360Q142 363 112 364L73 366V0Q65 0 49 -1T24 -3Q10 -3 0 0V618H71Q77 587 77 547Q77 508 72 451L120 445Q122 484 128 562Q138 645
182 645Q191 645 207 641T232 636Q209 623 209 558Q209 547 210 526T211 493Q211 436 192 409Q219 370 219 283V115Q219 94 213 53T206 -9Q206 -86 232 -109Z" />
<glyph unicode="L" glyph-name="L" horiz-adv-x="232" d="M225 103Q225 51 220 1Q204 1 171 0T122 -2Q71 -2 0 0V625Q13 625 40 622T80 619V85Q92 79 138 79Q137 91 137 104L138 200V199H220Q225 154 225 103Z" />
<glyph unicode="M" glyph-name="M" horiz-adv-x="321" d="M305 -120Q298 -120 286 -124T266 -128Q237 -128 216 -62Q200 -11 200 30V366Q193 344 178 300Q164 261 134 253Q107 349 83 412Q79 340 80 206Q81 65 78 0H0V618Q9 618 25 619T51 621Q66 621 78 618Q98
556 142 432Q164 474 207 618Q215 618 231 619T255 621Q272 621 285 618Q292 534 292 437Q292 383 289 274T286 111Q286 -33 305 -120Z" />
<glyph unicode="N" glyph-name="N" horiz-adv-x="249" d="M218 0Q199 -3 169 -3Q153 -3 140 0L82 259Q74 237 74 209Q74 186 79 141T85 72Q85 35 78 -1H66Q59 -1 46 -2T26 -3Q12 -3 0 0V617Q18 622 42 622Q65 622 85 618Q99 539 106 501Q119 434 133 385Q144 420
144 447Q144 465 132 495T119 532Q119 541 126 551T134 566Q140 583 140 618Q148 618 165 619T190 620Q206 620 218 617V0Z" />
<glyph unicode="O" glyph-name="O" horiz-adv-x="266" d="M238 234Q238 134 223 86Q196 0 121 0Q1 0 1 216Q1 233 2 266T4 317V529Q4 564 46 598T124 633Q159 633 198 599T238 531V234ZM150 87V546H92V87Q112 92 125 92Q139 92 150 87Z" />
<glyph unicode="P" glyph-name="P" horiz-adv-x="228" d="M219 475Q219 359 122 359Q115 359 101 362T80 366V0Q71 0 53 -1T25 -3Q12 -3 0 0V623Q74 625 116 625Q183 625 205 580Q219 551 219 475ZM138 446V538H80V446H138Z" />
<glyph unicode="Q" glyph-name="Q" horiz-adv-x="254" d="M227 165Q227 158 167 -70Q145 -67 101 -63Q96 -17 94 -10Q87 26 71 33Q0 64 0 107V512Q0 563 31 601Q64 643 113 643Q145 643 186 608T227 540V165ZM139 97V555H88V97H139Z" />
<glyph unicode="R" glyph-name="R" horiz-adv-x="262" d="M238 -100Q228 -100 210 -101T181 -103Q166 -103 153 -100Q132 -40 132 87Q132 133 135 223T139 360Q116 362 80 366V0Q71 0 54 -1T28 -3Q12 -3 0 0V624Q11 622 28 622Q39 622 62 623T96 625Q184 625 208
590Q226 564 226 471Q226 428 199 409Q210 406 224 378T238 336V-100ZM138 446V538H80V446H138Z" />
<glyph unicode="S" glyph-name="S" horiz-adv-x="260" d="M238 117Q238 72 202 36T121 0Q69 0 35 47Q4 89 4 143Q4 161 8 197T12 252Q20 252 37 253T62 255Q78 255 90 252Q94 220 93 172L91 92Q100 86 150 86V368Q145 371 139 371Q134 371 124 369T108 367Q48
367 27 399Q11 423 11 487Q11 627 121 627Q152 627 188 607Q230 585 230 557V481Q222 481 207 477T184 473Q144 473 144 508Q144 522 151 542Q146 545 138 545Q130 545 114 543T90 541V459Q136 452 182 446Q232 431 237 382Q233 378 233 343Q233 305 235 230T238
117Z" />
<glyph unicode="T" glyph-name="T" horiz-adv-x="233" d="M214 583Q214 566 211 553L209 554Q203 554 191 553T173 551Q161 551 146 554V14Q137 14 121 13T95 11Q78 11 66 14V548Q51 554 0 554Q0 562 -1 578T-3 603Q-3 619 0 632Q49 637 103 637Q160 637 211 632Q211
624 212 608T214 583Z" />
<glyph unicode="U" glyph-name="U" horiz-adv-x="263" d="M239 117Q240 77 205 39T129 0Q83 0 44 35T6 117L13 626Q21 626 38 627T63 628Q79 628 92 625V92Q104 86 152 86V626Q161 626 177 627T203 628Q219 628 232 625L239 117Z" />
<glyph unicode="V" glyph-name="V" horiz-adv-x="239" d="M225 617L151 0Q142 0 126 -1T100 -3Q84 -3 73 0L-7 618Q1 618 16 621T39 625Q67 625 86 543Q89 531 105 432Q96 391 96 362Q96 325 111 305Q122 373 131 461L147 618Q155 618 171 619T195 621Q212 621 225 617Z" />
<glyph unicode="W" glyph-name="W" horiz-adv-x="319" d="M288 0Q278 0 260 -1T231 -3Q215 -3 203 0Q197 31 184 94T149 175Q156 187 156 202Q156 212 152 219Q123 172 101 0H30Q21 105 16 309Q11 518 3 618Q21 623 45 623Q69 623 88 618Q89 545 101 398Q108 398
122 405T146 412Q154 412 170 409T194 405Q200 365 214 286V618Q222 618 239 619T264 621Q278 621 288 618V0ZM111 351H100L93 294H104L111 351Z" />
<glyph unicode="X" glyph-name="X" horiz-adv-x="256" d="M232 11Q225 2 206 2Q163 2 143 60Q142 63 122 155Q113 140 104 95T86 33Q71 2 43 2Q46 2 0 10Q73 301 73 319Q73 380 0 627L46 635Q77 635 97 572Q103 555 122 482Q132 532 161 628H232V598Q232 547 196
454T159 319Q159 313 174 259L232 46V11Z" />
<glyph unicode="Y" glyph-name="Y" horiz-adv-x="246" d="M227 509Q227 398 153 367V0Q134 -5 110 -5Q86 -5 67 0V254Q67 332 65 367Q-7 424 -7 482Q-7 516 8 618H79Q84 577 84 532Q84 488 79 444H146Q138 472 138 509Q138 534 148 618H219Q227 586 227 509Z" />
<glyph unicode="Z" glyph-name="Z" horiz-adv-x="256" d="M233 578L93 88L144 81Q142 111 142 141Q142 171 144 201H226Q229 174 229 137Q229 115 228 70T226 3Q181 -2 119 -2Q58 -2 8 3Q0 43 0 49Q0 58 36 180L89 361Q116 457 134 543H92Q88 537 88 529Q88 519
97 499T107 469Q107 444 86 430T37 416Q20 416 7 424Q4 450 4 486Q4 509 6 553T8 621Q53 626 114 626Q176 626 226 621Q226 617 230 599T233 578Z" />
<glyph unicode="[" glyph-name="bracketleft" horiz-adv-x="172" d="M161 2Q161 -14 158 -27Q149 -27 132 -30T106 -34Q65 -34 34 -13Q-1 11 -1 50V688Q-1 710 34 732Q66 753 89 753Q101 753 123 749T158 745Q161 727 161 697Q161 680 158 667Q146 667 122 664T85
660V58Q104 52 158 52Q158 44 159 27T161 2Z" />
<glyph unicode="]" glyph-name="bracketright" horiz-adv-x="190" d="M159 26Q159 -14 126 -37Q98 -57 56 -57Q47 -57 28 -53T0 -49Q0 -41 -1 -24T-3 1Q-3 17 0 29Q12 29 36 32T73 36V638Q60 642 37 642Q10 642 0 644Q0 652 -1 668T-3 692Q-3 709 0 723Q9 723
26 726T52 730Q125 730 159 667V26Z" />
<glyph unicode="a" glyph-name="a" horiz-adv-x="258" d="M232 417L224 1H159Q145 1 121 0Q102 0 95 0Q-3 0 -3 127Q-3 152 -3 152Q-2 186 -2 177Q-2 275 8 308Q30 380 102 380Q108 380 120 376T139 372L146 424Q123 422 94 422Q66 422 26 424V505Q48 513 85 513Q154
513 185 499Q233 477 232 417ZM144 88V306H86V87Q91 88 144 88Z" />
<glyph unicode="b" glyph-name="b" horiz-adv-x="261" d="M237 73Q237 41 201 19Q170 -1 136 -1Q129 -1 110 -1Q86 0 73 0Q73 0 10 0L2 509Q2 515 8 558Q16 614 37 638Q62 666 116 666Q125 666 142 662T168 658Q168 650 169 633T171 608Q171 592 168 580Q160 580
145 578T122 576Q110 576 100 579Q97 573 89 561V504L183 492Q207 489 221 469T236 423L237 73ZM148 87V418H90V87H148Z" />
<glyph unicode="c" glyph-name="c" horiz-adv-x="240" d="M229 113Q229 72 191 36T112 0Q29 0 5 96Q-5 136 -5 257Q-5 270 -6 296T-7 336Q-7 513 135 513Q169 513 199 470T229 390Q229 373 220 361Q212 361 196 360T171 358Q155 358 143 361Q143 378 142 422Q120
423 83 427V92Q93 86 137 86Q139 108 143 146H221Q221 140 225 130T229 113Z" />
<glyph unicode="d" glyph-name="d" horiz-adv-x="263" d="M233 541L226 12Q212 13 184 12Q154 11 141 11Q67 11 33 37Q-6 67 -6 138Q-6 158 -3 198T0 258Q0 250 -1 281Q-1 281 -1 304Q-1 511 64 511H141Q146 524 146 541Q146 558 141 579Q97 579 67 586Q67 594
66 611T65 636Q65 652 68 664Q75 664 87 667T107 671Q158 671 186 653T226 587Q233 558 233 541ZM139 99V430H91V99H139Z" />
<glyph unicode="e" glyph-name="e" horiz-adv-x="246" d="M233 112Q233 68 194 35T110 2Q29 2 7 127Q-1 172 -1 313Q-1 515 117 515Q172 515 204 473Q233 436 233 379Q233 368 230 348T226 316Q211 316 183 315T139 313Q114 313 92 316L86 94Q96 88 141 88Q145
98 145 118T148 148Q156 148 172 149T196 151Q213 151 226 147Q226 141 229 130T233 112ZM146 396V428Q145 427 140 421T127 415Q120 415 108 421T88 428V396H146Z" />
<glyph unicode="f" glyph-name="f" horiz-adv-x="195" d="M208 709Q208 692 204 680Q195 680 178 678T151 676Q132 676 112 679V577Q125 573 148 573Q175 573 185 571Q185 563 186 547T188 523Q188 506 184 493Q178 493 166 492T147 490Q132 490 118 493V0Q110
0 93 -1T68 -3Q52 -3 40 0Q26 88 26 221V222L27 234L28 281L33 488Q27 495 0 493Q0 501 -1 518T-3 543Q-3 559 0 571H27Q27 600 28 659Q30 706 51 734Q75 766 129 766Q173 766 205 758Q205 750 206 734T208 709Z" />
<glyph unicode="g" glyph-name="g" horiz-adv-x="270" d="M244 -89Q244 -131 202 -156Q166 -178 121 -178Q17 -178 17 -82Q17 -75 21 -61T25 -39Q33 -39 50 -38T75 -37Q91 -37 103 -40Q103 -75 109 -92L158 -86V37L153 40Q136 35 134 35Q44 35 21 87Q9 114 9 220Q9
326 22 367Q47 448 127 448Q163 448 203 415T244 346V-89ZM156 123V361H98V123H156Z" />
<glyph unicode="h" glyph-name="h" horiz-adv-x="259" d="M235 -67H224Q217 -67 204 -68T183 -69Q168 -69 157 -67Q143 15 143 117Q143 150 144 215T146 314Q146 366 143 413H90V0Q55 1 10 0V618Q18 618 34 619T59 621Q75 621 88 618Q93 592 93 561Q93 531 88
497L181 489Q235 477 235 423V-67Z" />
<glyph unicode="i" glyph-name="i" horiz-adv-x="148" d="M143 553Q104 526 63 526Q28 526 -17 553V605Q22 639 40 639Q55 639 91 627T143 605V553ZM102 0H29V498H102V0Z" />
<glyph unicode="j" glyph-name="j" horiz-adv-x="249" d="M237 553Q201 526 177 526Q153 526 132 542T111 582Q111 600 134 616T177 632Q193 632 237 605V553ZM210 -59Q210 -93 169 -127T94 -161Q54 -161 16 -126T-23 -51Q-23 -44 -19 -30T-15 -9Q0 -4 22 -4Q43
-4 63 -9Q63 -57 69 -75H122V498H210V-59Z" />
<glyph unicode="k" glyph-name="k" horiz-adv-x="250" d="M225 0Q216 0 200 -1T174 -2Q157 -2 146 0Q146 10 139 28T132 57V229Q132 239 135 258T139 288Q139 321 115 340H80V0Q45 1 0 0V618Q8 618 25 619T50 621Q66 621 78 618L79 424Q83 419 89 419Q143 419
143 434Q143 440 141 450T138 467Q138 484 147 499Q155 499 170 500T194 501Q212 501 225 498V0Z" />
<glyph unicode="l" glyph-name="l" horiz-adv-x="120" d="M89 0Q74 -5 51 -5Q29 -5 10 0Q-4 83 -4 131V685H32Q49 685 69 660T89 616V0Z" />
<glyph unicode="m" glyph-name="m" horiz-adv-x="394" d="M369 -67Q360 -67 343 -68T316 -70Q301 -70 290 -67Q274 17 274 138Q274 172 275 239T277 341V420H223V80Q214 80 196 79T169 77Q155 77 143 80V414Q122 415 83 419V0Q67 -5 44 -5Q22 -5 0 0V504Q34 501
90 501Q122 501 186 503T282 505Q325 505 347 475T369 400V-67Z" />
<glyph unicode="n" glyph-name="n" horiz-adv-x="252" d="M225 -67H214Q207 -67 194 -68T173 -69Q158 -69 147 -67Q132 19 132 162V388Q132 386 139 414Q119 415 85 420V7Q62 -8 39 -8Q32 -8 20 -4T0 0V504Q103 506 139 506Q168 506 196 482T225 430V-67Z" />
<glyph unicode="o" glyph-name="o" horiz-adv-x="264" d="M241 102Q241 68 200 34T124 0Q52 0 25 64Q7 107 7 190V306Q7 513 124 513Q154 513 197 480T241 417V102ZM153 88V426H95V88H153Z" />
<glyph unicode="p" glyph-name="p" horiz-adv-x="255" d="M230 385Q230 365 229 297Q227 157 222 127Q203 15 133 15Q112 15 86 24Q78 -10 80 -89Q72 -89 57 -90T33 -91Q13 -91 2 -88V535Q90 537 134 537Q194 537 216 487Q230 455 230 385ZM140 111V449H82V111Q96
114 108 114Q113 114 124 113T140 111Z" />
<glyph unicode="q" glyph-name="q" horiz-adv-x="253" d="M232 -164Q224 -164 210 -168T187 -172Q144 -172 144 -61Q144 -48 145 -23T147 16Q140 19 131 19Q125 19 112 17T93 15Q-3 15 -3 171Q-3 185 -2 213T0 255Q0 260 0 273Q-1 289 -1 298Q-1 298 -1 340Q-1
453 12 480Q35 528 134 528Q152 528 226 526L232 -164ZM145 102V441H88V102Q107 107 121 107Q135 107 145 102Z" />
<glyph unicode="r" glyph-name="r" horiz-adv-x="169" d="M155 420Q75 420 83 419V0Q74 0 57 -1T31 -3Q14 -3 0 0V443Q11 464 45 484T103 505Q112 505 129 502T155 498V420Z" />
<glyph unicode="s" glyph-name="s" horiz-adv-x="270" d="M250 293Q250 259 249 232Q245 112 236 82Q213 0 130 0Q86 0 50 36T14 117V286Q21 286 33 293T53 300Q60 300 73 293T92 286Q103 136 100 92Q106 89 115 89Q121 89 138 91Q152 93 161 92V308Q155 311 148
311Q142 311 129 309T110 307Q73 307 43 332T13 393Q13 436 48 474T127 513Q157 513 193 489Q233 463 233 435Q169 413 160 413Q135 413 105 427L99 399Q174 399 205 383Q250 360 250 293Z" />
<glyph unicode="t" glyph-name="t" horiz-adv-x="218" d="M210 516Q210 499 207 486H140V0Q132 0 116 -1T91 -3Q74 -3 62 0Q62 11 55 34T48 68L55 481Q49 488 22 486V564H55Q51 592 51 621Q51 653 56 685Q62 684 134 684V570Q147 566 170 566Q197 566 207 564Q207
556 208 540T210 516Z" />
<glyph unicode="u" glyph-name="u" horiz-adv-x="253" d="M232 78Q232 -1 88 -1Q83 -1 70 -1Q53 0 44 0Q44 0 0 0V498Q24 507 55 507Q70 507 82 504V91Q94 85 142 85V505Q151 505 167 506T193 507Q210 507 222 504L229 103Q229 99 230 91T232 78Z" />
<glyph unicode="v" glyph-name="v" horiz-adv-x="262" d="M244 498L170 7Q144 -7 127 -7Q121 -7 110 -4T92 0Q62 154 34 309Q11 436 11 498Q43 506 47 506Q82 506 91 486Q93 471 98 441T130 391Q124 395 110 400V388Q110 358 122 266Q140 292 151 377Q152 384
165 498Q173 498 189 499T213 501Q231 501 244 498Z" />
<glyph unicode="w" glyph-name="w" horiz-adv-x="389" d="M366 224Q366 0 295 0H0V505Q8 505 24 506T49 508Q66 508 78 505V92L138 85V398H218Q218 360 220 285T222 171Q222 106 219 91Q228 85 278 85V505Q287 505 304 506T330 508Q347 508 358 505Q366 415 366 224Z" />
<glyph unicode="x" glyph-name="x" horiz-adv-x="253" d="M239 0H154Q145 87 116 126Q95 62 85 0Q75 0 56 -1T27 -2Q14 -2 0 0Q4 33 42 136Q79 235 79 249Q79 257 44 362Q4 482 0 498Q10 498 28 499T57 501Q74 501 85 498Q94 443 116 366Q136 401 154 499Q163
499 180 500T207 501Q224 501 239 498Q224 458 197 369Q166 268 166 249Q166 206 202 123T239 30V0Z" />
<glyph unicode="y" glyph-name="y" horiz-adv-x="267" d="M249 1Q249 -49 212 -87T125 -125Q87 -125 51 -88T15 -12Q15 -5 19 7T23 27H101V-18Q102 -29 102 -34Q113 -40 162 -40V83Q158 86 152 86Q147 86 137 84T122 81Q60 81 34 117Q13 147 13 212Q13 391 23
487H95V173Q120 171 161 167V487H234Q239 439 239 377Q239 348 238 289T236 201Q236 89 237 58Q237 49 243 30T249 1Z" />
<glyph unicode="z" glyph-name="z" horiz-adv-x="251" d="M233 464L100 78H104Q122 78 135 96T147 132Q156 132 172 133T198 135Q214 135 226 132Q229 114 229 89Q229 73 228 42T226 -6Q176 -11 119 -11Q62 -11 8 -6Q4 6 0 30L62 197Q84 250 121 358Q129 387 134
414H92Q89 409 89 403Q89 391 100 362Q86 353 45 353Q52 353 27 354Q27 354 8 354Q3 384 3 422Q3 459 8 499Q81 498 226 492Q226 472 233 464Z" />
</font>
</defs>
</svg>
